<?xml version="1.0" encoding="utf-8"?>
<!-- Generator: Adobe Illustrator 24.1.0, SVG Export Plug-In . SVG Version: 6.00 Build 0)  -->
<svg version="1.1" id="Layer_1" xmlns="http://www.w3.org/2000/svg" xmlns:xlink="http://www.w3.org/1999/xlink" x="0px" y="0px"
	 width="600px" height="410px" viewBox="0 0 600 410" style="enable-background:new 0 0 600 410;" xml:space="preserve">
<style type="text/css">
	.st0{fill:#363F43;}
	.st1{fill:#FFFFFF;}
	.st2{opacity:0.1;}
	.st3{fill:#363F43;fill-opacity:0;}
	.st4{opacity:4.761905e-02;fill:#363F43;enable-background:new    ;}
	.st5{opacity:9.523810e-02;fill:#363F43;enable-background:new    ;}
	.st6{opacity:0.1429;fill:#363F43;enable-background:new    ;}
	.st7{opacity:0.1905;fill:#363F43;enable-background:new    ;}
	.st8{opacity:0.2381;fill:#363F43;enable-background:new    ;}
	.st9{opacity:0.2857;fill:#363F43;enable-background:new    ;}
	.st10{opacity:0.3333;fill:#363F43;enable-background:new    ;}
	.st11{opacity:0.381;fill:#363F43;enable-background:new    ;}
	.st12{opacity:0.4286;fill:#363F43;enable-background:new    ;}
	.st13{opacity:0.4762;fill:#363F43;enable-background:new    ;}
	.st14{opacity:0.5238;fill:#363F43;enable-background:new    ;}
	.st15{opacity:0.5714;fill:#363F43;enable-background:new    ;}
	.st16{opacity:0.619;fill:#363F43;enable-background:new    ;}
	.st17{opacity:0.6667;fill:#363F43;enable-background:new    ;}
	.st18{opacity:0.7143;fill:#363F43;enable-background:new    ;}
	.st19{opacity:0.7619;fill:#363F43;enable-background:new    ;}
	.st20{opacity:0.8095;fill:#363F43;enable-background:new    ;}
	.st21{opacity:0.8571;fill:#363F43;enable-background:new    ;}
	.st22{opacity:0.9048;fill:#363F43;enable-background:new    ;}
	.st23{opacity:0.9524;fill:#363F43;enable-background:new    ;}
	.st24{fill:#55ACEE;}
	.st25{fill:#E2E8ED;}
	.st26{fill:#81C5EF;}
	.st27{fill:#292F33;}
	.st28{opacity:0.12;}
	.st29{opacity:0;}
	.st30{fill:#0D185E;}
	.st31{opacity:9.090909e-02;}
	.st32{opacity:0.1818;}
	.st33{opacity:0.2727;}
	.st34{opacity:0.3636;}
	.st35{opacity:0.4545;}
	.st36{opacity:0.5455;}
	.st37{opacity:0.6364;}
	.st38{opacity:0.7273;}
	.st39{opacity:0.8182;}
	.st40{opacity:0.9091;}
	.st41{fill:#FAFEFF;}
	.st42{opacity:0.15;}
	.st43{fill:#CCD6DD;}
	.st44{fill:#121B1F;}
	.st45{fill:none;}
</style>
<g>
	<path class="st0" d="M60.5,355.5H168c2,0,3.7-1.8,3.7-4V282c0-2.2-1.7-4-3.7-4l-64,0.3c-1,0-1.9-0.4-2.6-1.2l-6.6-7.1
		c-0.7-0.7-1.6-1.2-2.6-1.2H60.5c-2,0-3.7,1.8-3.7,4v78.7C56.8,353.7,58.5,355.5,60.5,355.5z"/>
	<path class="st1" d="M161.9,336H67.4c-3.7,0-6.7-3-6.7-6.7v-42.6c0-3.7,3-6.7,6.7-6.7h94.5c3.7,0,6.7,3,6.7,6.7v42.6
		C168.6,333.1,165.6,336,161.9,336z"/>
	<g class="st2">
		<path class="st3" d="M162.1,336.6H67.5c-3.7,0-6.7-3-6.7-6.7v-42.6c0-3.7,3-6.7,6.7-6.7H162c3.7,0,6.7,3,6.7,6.7v42.6
			C168.7,333.6,165.7,336.6,162.1,336.6z"/>
		<path class="st4" d="M162.2,336.6H67.6c-3.7,0-6.7-3-6.7-6.7v-42.6c0-3.7,3-6.7,6.7-6.7h94.5c3.7,0,6.7,3,6.7,6.7v42.6
			C168.8,333.7,165.8,336.6,162.2,336.6z"/>
		<path class="st5" d="M162.2,336.7H67.7c-3.7,0-6.7-3-6.7-6.7v-42.5c0-3.7,3-6.7,6.7-6.7h94.5c3.7,0,6.7,3,6.7,6.7v42.6
			C168.9,333.7,165.9,336.7,162.2,336.7z"/>
		<path class="st6" d="M162.3,336.8H67.8c-3.7,0-6.7-3-6.7-6.7v-42.6c0-3.7,3-6.7,6.7-6.7h94.5c3.7,0,6.7,3,6.7,6.7v42.6
			C169,333.8,166,336.8,162.3,336.8z"/>
		<path class="st7" d="M162.4,336.9H67.9c-3.7,0-6.7-3-6.7-6.7v-42.6c0-3.7,3-6.7,6.7-6.7h94.5c3.7,0,6.7,3,6.7,6.7v42.6
			C169.1,333.9,166.1,336.9,162.4,336.9z"/>
		<path class="st8" d="M162.5,337H68c-3.7,0-6.7-3-6.7-6.7v-42.6c0-3.7,3-6.7,6.7-6.7h94.5c3.7,0,6.7,3,6.7,6.7v42.6
			C169.2,334,166.2,337,162.5,337z"/>
		<path class="st9" d="M162.6,337H68.1c-3.7,0-6.7-3-6.7-6.7v-42.6c0-3.7,3-6.7,6.7-6.7h94.5c3.7,0,6.7,3,6.7,6.7v42.6
			C169.3,334.1,166.3,337,162.6,337z"/>
		<path class="st10" d="M162.7,337.1H68.2c-3.7,0-6.7-3-6.7-6.7v-42.6c0-3.7,3-6.7,6.7-6.7h94.5c3.7,0,6.7,3,6.7,6.7v42.7
			C169.4,334.1,166.4,337.1,162.7,337.1z"/>
		<path class="st11" d="M162.8,337.2H68.3c-3.7,0-6.7-3-6.7-6.7v-42.6c0-3.7,3-6.7,6.7-6.7h94.5c3.7,0,6.7,3,6.7,6.7v42.6
			C169.5,334.2,166.5,337.2,162.8,337.2z"/>
		<path class="st12" d="M162.9,337.3H68.4c-3.7,0-6.7-3-6.7-6.7V288c0-3.7,3-6.7,6.7-6.7h94.5c3.7,0,6.7,3,6.7,6.7v42.6
			C169.6,334.3,166.6,337.3,162.9,337.3z"/>
		<path class="st13" d="M163,337.4H68.5c-3.7,0-6.7-3-6.7-6.7v-42.6c0-3.7,3-6.7,6.7-6.7H163c3.7,0,6.7,3,6.7,6.7v42.6
			C169.7,334.4,166.7,337.4,163,337.4z"/>
		<path class="st14" d="M163.1,337.5H68.6c-3.7,0-6.7-3-6.7-6.7v-42.6c0-3.7,3-6.7,6.7-6.7h94.5c3.7,0,6.7,3,6.7,6.7v42.6
			C169.8,334.5,166.8,337.5,163.1,337.5z"/>
		<path class="st15" d="M163.2,337.5H68.7c-3.7,0-6.7-3-6.7-6.7v-42.6c0-3.7,3-6.7,6.7-6.7h94.5c3.7,0,6.7,3,6.7,6.7v42.6
			C169.9,334.6,166.9,337.5,163.2,337.5z"/>
		<path class="st16" d="M163.3,337.6H68.8c-3.7,0-6.7-3-6.7-6.7v-42.6c0-3.7,3-6.7,6.7-6.7h94.5c3.7,0,6.7,3,6.7,6.7v42.6
			C170,334.6,167,337.6,163.3,337.6z"/>
		<path class="st17" d="M163.4,337.7H68.9c-3.7,0-6.7-3-6.7-6.7v-42.5c0-3.7,3-6.7,6.7-6.7h94.5c3.7,0,6.7,3,6.7,6.7v42.6
			C170.1,334.7,167.1,337.7,163.4,337.7z"/>
		<path class="st18" d="M163.5,337.8H69c-3.7,0-6.7-3-6.7-6.7v-42.6c0-3.7,3-6.7,6.7-6.7h94.5c3.7,0,6.7,3,6.7,6.7v42.6
			C170.2,334.8,167.2,337.8,163.5,337.8z"/>
		<path class="st19" d="M163.6,337.9H69.1c-3.7,0-6.7-3-6.7-6.7v-42.6c0-3.7,3-6.7,6.7-6.7h94.5c3.7,0,6.7,3,6.7,6.7v42.6
			C170.3,334.9,167.3,337.9,163.6,337.9z"/>
		<path class="st20" d="M163.7,337.9H69.2c-3.7,0-6.7-3-6.7-6.7v-42.6c0-3.7,3-6.7,6.7-6.7h94.5c3.7,0,6.7,3,6.7,6.7v42.6
			C170.3,335,167.4,337.9,163.7,337.9z"/>
		<path class="st21" d="M163.8,338H69.3c-3.7,0-6.7-3-6.7-6.7v-42.6c0-3.7,3-6.7,6.7-6.7h94.5c3.7,0,6.7,3,6.7,6.7v42.6
			C170.4,335,167.5,338,163.8,338z"/>
		<path class="st22" d="M163.9,338.1H69.4c-3.7,0-6.7-3-6.7-6.7v-42.6c0-3.7,3-6.7,6.7-6.7h94.5c3.7,0,6.7,3,6.7,6.7v42.6
			C170.5,335.1,167.6,338.1,163.9,338.1z"/>
		<path class="st23" d="M164,338.2H69.5c-3.7,0-6.7-3-6.7-6.7v-42.6c0-3.7,3-6.7,6.7-6.7H164c3.7,0,6.7,3,6.7,6.7v42.6
			C170.6,335.2,167.7,338.2,164,338.2z"/>
		<path class="st0" d="M164.1,338.3H69.6c-3.7,0-6.7-3-6.7-6.7V289c0-3.7,3-6.7,6.7-6.7h94.5c3.7,0,6.7,3,6.7,6.7v42.6
			C170.7,335.3,167.7,338.3,164.1,338.3z"/>
	</g>
	<path class="st1" d="M163.6,338.3H69.1c-3.7,0-6.7-3-6.7-6.7V289c0-3.7,3-6.7,6.7-6.7h94.5c3.7,0,6.7,3,6.7,6.7v42.6
		C170.3,335.3,167.3,338.3,163.6,338.3z"/>
	<g class="st2">
		<path class="st3" d="M163.9,338.8H69.4c-3.7,0-6.7-3-6.7-6.7v-42.6c0-3.7,3-6.7,6.7-6.7h94.5c3.7,0,6.7,3,6.7,6.7v42.6
			C170.6,335.8,167.6,338.8,163.9,338.8z"/>
		<path class="st4" d="M164,338.9H69.5c-3.7,0-6.7-3-6.7-6.7v-42.6c0-3.7,3-6.7,6.7-6.7H164c3.7,0,6.7,3,6.7,6.7v42.6
			C170.7,335.9,167.7,338.9,164,338.9z"/>
		<path class="st5" d="M164.1,339H69.6c-3.7,0-6.7-3-6.7-6.7v-42.6c0-3.7,3-6.7,6.7-6.7h94.5c3.7,0,6.7,3,6.7,6.7v42.6
			C170.8,336,167.8,339,164.1,339z"/>
		<path class="st6" d="M164.2,339.1H69.7c-3.7,0-6.7-3-6.7-6.7v-42.6c0-3.7,3-6.7,6.7-6.7h94.5c3.7,0,6.7,3,6.7,6.7v42.6
			C170.9,336.1,167.9,339.1,164.2,339.1z"/>
		<path class="st7" d="M164.3,339.1H69.8c-3.7,0-6.7-3-6.7-6.7v-42.6c0-3.7,3-6.7,6.7-6.7h94.5c3.7,0,6.7,3,6.7,6.7v42.7
			C171,336.2,168,339.1,164.3,339.1z"/>
		<path class="st8" d="M164.4,339.2H69.9c-3.7,0-6.7-3-6.7-6.7v-42.6c0-3.7,3-6.7,6.7-6.7h94.5c3.7,0,6.7,3,6.7,6.7v42.6
			C171.1,336.2,168.1,339.2,164.4,339.2z"/>
		<path class="st9" d="M164.5,339.3H70c-3.7,0-6.7-3-6.7-6.7V290c0-3.7,3-6.7,6.7-6.7h94.5c3.7,0,6.7,3,6.7,6.7v42.6
			C171.2,336.3,168.2,339.3,164.5,339.3z"/>
		<path class="st10" d="M164.6,339.4H70.1c-3.7,0-6.7-3-6.7-6.7v-42.6c0-3.7,3-6.7,6.7-6.7h94.5c3.7,0,6.7,3,6.7,6.7v42.6
			C171.2,336.4,168.3,339.4,164.6,339.4z"/>
		<path class="st11" d="M164.7,339.5H70.2c-3.7,0-6.7-3-6.7-6.7v-42.6c0-3.7,3-6.7,6.7-6.7h94.5c3.7,0,6.7,3,6.7,6.7v42.6
			C171.3,336.5,168.4,339.5,164.7,339.5z"/>
		<path class="st12" d="M164.8,339.6H70.3c-3.7,0-6.7-3-6.7-6.7v-42.6c0-3.7,3-6.7,6.7-6.7h94.5c3.7,0,6.7,3,6.7,6.7v42.6
			C171.4,336.6,168.5,339.6,164.8,339.6z"/>
		<path class="st13" d="M164.9,339.6H70.4c-3.7,0-6.7-3-6.7-6.7v-42.6c0-3.7,3-6.7,6.7-6.7h94.5c3.7,0,6.7,3,6.7,6.7v42.6
			C171.5,336.7,168.6,339.6,164.9,339.6z"/>
		<path class="st14" d="M165,339.7H70.5c-3.7,0-6.7-3-6.7-6.7v-42.5c0-3.7,3-6.7,6.7-6.7H165c3.7,0,6.7,3,6.7,6.7v42.6
			C171.6,336.7,168.6,339.7,165,339.7z"/>
		<path class="st15" d="M165.1,339.8H70.5c-3.7,0-6.7-3-6.7-6.7v-42.6c0-3.7,3-6.7,6.7-6.7H165c3.7,0,6.7,3,6.7,6.7v42.6
			C171.7,336.8,168.7,339.8,165.1,339.8z"/>
		<path class="st16" d="M165.2,339.9H70.6c-3.7,0-6.7-3-6.7-6.7v-42.6c0-3.7,3-6.7,6.7-6.7h94.5c3.7,0,6.7,3,6.7,6.7v42.6
			C171.8,336.9,168.8,339.9,165.2,339.9z"/>
		<path class="st17" d="M165.3,340H70.7c-3.7,0-6.7-3-6.7-6.7v-42.6c0-3.7,3-6.7,6.7-6.7h94.5c3.7,0,6.7,3,6.7,6.7v42.6
			C171.9,337,168.9,340,165.3,340z"/>
		<path class="st18" d="M165.3,340H70.8c-3.7,0-6.7-3-6.7-6.7v-42.6c0-3.7,3-6.7,6.7-6.7h94.5c3.7,0,6.7,3,6.7,6.7v42.6
			C172,337.1,169,340,165.3,340z"/>
		<path class="st19" d="M165.4,340.1H70.9c-3.7,0-6.7-3-6.7-6.7v-42.6c0-3.7,3-6.7,6.7-6.7h94.5c3.7,0,6.7,3,6.7,6.7v42.7
			C172.1,337.1,169.1,340.1,165.4,340.1z"/>
		<path class="st20" d="M165.5,340.2H71c-3.7,0-6.7-3-6.7-6.7v-42.6c0-3.7,3-6.7,6.7-6.7h94.5c3.7,0,6.7,3,6.7,6.7v42.6
			C172.2,337.2,169.2,340.2,165.5,340.2z"/>
		<path class="st21" d="M165.6,340.3H71.1c-3.7,0-6.7-3-6.7-6.7V291c0-3.7,3-6.7,6.7-6.7h94.5c3.7,0,6.7,3,6.7,6.7v42.6
			C172.3,337.3,169.3,340.3,165.6,340.3z"/>
		<path class="st22" d="M165.7,340.4H71.2c-3.7,0-6.7-3-6.7-6.7v-42.6c0-3.7,3-6.7,6.7-6.7h94.5c3.7,0,6.7,3,6.7,6.7v42.6
			C172.4,337.4,169.4,340.4,165.7,340.4z"/>
		<path class="st23" d="M165.8,340.5H71.3c-3.7,0-6.7-3-6.7-6.7v-42.6c0-3.7,3-6.7,6.7-6.7h94.5c3.7,0,6.7,3,6.7,6.7v42.6
			C172.5,337.5,169.5,340.5,165.8,340.5z"/>
		<path class="st0" d="M165.9,340.5H71.4c-3.7,0-6.7-3-6.7-6.7v-42.6c0-3.7,3-6.7,6.7-6.7h94.5c3.7,0,6.7,3,6.7,6.7v42.6
			C172.6,337.6,169.6,340.5,165.9,340.5z"/>
	</g>
	<path class="st1" d="M165.9,340.5H71.4c-3.7,0-6.7-3-6.7-6.7v-42.6c0-3.7,3-6.7,6.7-6.7h94.5c3.7,0,6.7,3,6.7,6.7v42.6
		C172.6,337.6,169.6,340.5,165.9,340.5z"/>
	<g>
		<path class="st24" d="M173.8,369h-114c-2.2,0-3.9-1.8-3.9-4v-68.4c0-2.2,1.8-4,3.9-4h57.3c1,0,1.4-0.1,2.1-0.9l7-7
			c0.7-0.7,1.7-1.1,2.7-1.1h44.9c2.2,0,3.9,1.8,3.9,4V365C177.7,367.3,176,369,173.8,369z"/>
	</g>
</g>
<g>
	<g>
		<path class="st25" d="M557.6,202.1H435.8c-3.1,0-5.6-2.5-5.6-5.6v-81.1c0-3.1,2.5-5.6,5.6-5.6h121.8c3.1,0,5.6,2.5,5.6,5.6v81.1
			C563.2,199.6,560.7,202.1,557.6,202.1z"/>
		<path class="st24" d="M558.3,204.2H435.1c-3.9,0-7.1-3.2-7.1-7.1v-82.5c0-3.9,3.2-7.1,7.1-7.1h123.1c3.9,0,7.1,3.2,7.1,7.1v82.5
			C565.3,201.1,562.2,204.2,558.3,204.2z M435.1,111.8c-1.6,0-2.9,1.3-2.9,2.9v82.5c0,1.6,1.3,2.9,2.9,2.9h123.1
			c1.6,0,2.9-1.3,2.9-2.9v-82.5c0-1.6-1.3-2.9-2.9-2.9C558.2,111.8,435.1,111.8,435.1,111.8z"/>
	</g>
	<path class="st0" d="M484,146.9l-21.7,37.5c-0.9,1.6,0.2,3.7,2.1,3.7h43.3c1.9,0,3.1-2,2.1-3.7l-21.7-37.5
		C487.3,145.2,484.9,145.2,484,146.9z"/>
	<path class="st0" d="M515.7,134.9l-28.6,49.5c-0.9,1.6,0.2,3.7,2.1,3.7h57.1c1.9,0,3.1-2,2.1-3.7l-28.6-49.5
		C519,133.3,516.6,133.3,515.7,134.9z"/>
	<circle class="st0" cx="452.5" cy="137.8" r="13.6"/>
</g>
<g>
	<path class="st26" d="M329.2,353.6v0.3l-1.4,37.2h-67.9c-2.1,0-4-1.3-4.9-3.2c-0.7-1.5-2-2.8-3.5-3.5c-1.9-0.9-3.2-2.8-3.2-4.9
		v-10.2c0-2.3,1.4-4.3,3.5-5c4.2-1.5,7.2-5.4,7.2-10.1c0-0.1,0-0.1,0-0.2c-0.1-4.9-3.5-9-8.1-10.2c-1.6-0.4-2.7-1.8-2.7-3.4v-12.9
		c0-1.5,0.9-2.8,2.3-3.3c2.2-0.7,3.9-2.5,4.7-4.7c0.5-1.4,1.8-2.3,3.3-2.3h69.2L329.2,353.6z"/>
	<path class="st24" d="M329.2,354l-1.4,37.2H258c-1.2,0-2.3-0.8-2.7-2c-0.7-2.4-2.6-4.4-5.1-5.1c-1.2-0.3-2-1.4-2-2.7v-14
		c0-1.3,0.9-2.4,2.2-2.7c4.9-1,8.6-5.3,8.6-10.5c0-0.1,0-0.1,0-0.2L329.2,354L329.2,354z"/>
	<path class="st0" d="M341,354c0,0.1,0,0.1,0,0.2c0,5.2,3.7,9.6,8.7,10.5c1.2,0.2,2,1.3,2,2.5v14.4c0,1.1-0.8,2.1-1.9,2.4
		c-2.6,0.7-4.6,2.7-5.3,5.3c-0.3,1.1-1.3,1.9-2.4,1.9h-14.5v-74h14.6c1.1,0,2.1,0.8,2.4,1.9c0.7,2.6,2.7,4.6,5.3,5.3
		c1.1,0.3,1.9,1.3,1.9,2.4v14.4c0,1.2-0.9,2.2-2,2.5C344.9,344.6,341.2,348.8,341,354z"/>
	<path class="st0" d="M283.3,342.9v15.8c-1.6-0.7-3.4-1.1-5.4-0.9c-5.1,0.5-9.1,4.6-9.5,9.6c-0.5,6.1,4.4,11.3,10.4,11.3
		c5.8,0,10.5-4.9,10.5-10.6v-24.7l18.6-5.6v13.6c-1.3-0.6-2.8-1-4.4-1c-3.1,0-6,1.4-7.9,3.6c-1.7,2-2.7,4.5-2.6,7.4
		c0.2,5.4,4.6,9.8,10,10c6,0.2,10.9-4.5,10.9-10.5v-26.1c0-2.6-2.5-4.4-4.9-3.7l-22,6.6C284.8,338.4,283.3,340.5,283.3,342.9z"/>
	<g>
		<g>
			<g>
				<path class="st27" d="M283.3,358.8c-1.3-0.6-2.8-1-4.4-1c-5.8,0-10.5,4.7-10.5,10.5s4.7,10.5,10.5,10.5s10.5-4.7,10.5-10.5V354
					h-6.1V358.8z"/>
				<path class="st27" d="M295.7,354c-1.6,1.8-2.6,4.2-2.6,6.9c0,5.8,4.7,10.5,10.5,10.5s10.5-4.7,10.5-10.5V354H295.7z"/>
			</g>
		</g>
	</g>
	<path class="st27" d="M327.8,353.8v37.4h14.5c1.1,0,2.1-0.8,2.4-1.9c0.7-2.6,2.7-4.6,5.3-5.3c1.1-0.3,1.9-1.3,1.9-2.4v-14.4
		c0-1.2-0.9-2.2-2-2.5c-4.9-0.9-8.6-5.2-8.7-10.3c0-0.1,0-0.1,0-0.2s0-0.3,0-0.4L327.8,353.8L327.8,353.8z"/>
</g>
<g>
	<g>
		<g class="st28">
			<g class="st29">
				<path class="st30" d="M178.6,208.4H81.5c-3.1,0-5.7-2.6-5.7-5.7V60.6c0-3.1,2.6-5.7,5.7-5.7h97.1c3.1,0,5.7,2.6,5.7,5.7v142.1
					C184.5,205.8,182,208.4,178.6,208.4z"/>
			</g>
			<g class="st31">
				<path class="st30" d="M178.5,208.4H81.3c-3.1,0-5.7-2.6-5.7-5.7V60.6c0-3.1,2.6-5.7,5.7-5.7h97.1c3.1,0,5.7,2.6,5.7,5.7v142.1
					C184.3,205.8,181.8,208.4,178.5,208.4z"/>
			</g>
			<g class="st32">
				<path class="st30" d="M178.5,208.6H81.3c-3.1,0-5.7-2.6-5.7-5.7V60.8c0-3.1,2.6-5.7,5.7-5.7h97.1c3.1,0,5.7,2.6,5.7,5.7v142.1
					C184.3,206,181.8,208.6,178.5,208.6z"/>
			</g>
			<g class="st33">
				<path class="st30" d="M178.5,208.6H81.3c-3.1,0-5.7-2.6-5.7-5.7V60.8c0-3.1,2.6-5.7,5.7-5.7h97.1c3.1,0,5.7,2.6,5.7,5.7v142.1
					C184.3,206,181.8,208.6,178.5,208.6z"/>
			</g>
			<g class="st34">
				<path class="st30" d="M178.3,208.8H81.2c-3.1,0-5.7-2.6-5.7-5.7V61c0-3.1,2.6-5.7,5.7-5.7h97.1c3.1,0,5.7,2.6,5.7,5.7v142.1
					C184.2,206.2,181.6,208.8,178.3,208.8z"/>
			</g>
			<g class="st35">
				<path class="st30" d="M178.3,208.8H81.2c-3.1,0-5.7-2.6-5.7-5.7V61c0-3.1,2.6-5.7,5.7-5.7h97.1c3.1,0,5.7,2.6,5.7,5.7v142.1
					C184.2,206.2,181.6,208.8,178.3,208.8z"/>
			</g>
			<g class="st36">
				<path class="st30" d="M178.1,208.8H81c-3.1,0-5.7-2.6-5.7-5.7V61c0-3.1,2.6-5.7,5.7-5.7h97.1c3.1,0,5.7,2.6,5.7,5.7v142.1
					C184,206.2,181.4,208.8,178.1,208.8z"/>
			</g>
			<g class="st37">
				<path class="st30" d="M178.1,209H81c-3.1,0-5.7-2.6-5.7-5.7V61.2c0-3.1,2.6-5.7,5.7-5.7h97.1c3.1,0,5.7,2.6,5.7,5.7v142.1
					C184,206.4,181.4,209,178.1,209z"/>
			</g>
			<g class="st38">
				<path class="st30" d="M177.9,209H80.8c-3.1,0-5.7-2.6-5.7-5.7V61.2c0-3.1,2.6-5.7,5.7-5.7h97.1c3.1,0,5.7,2.6,5.7,5.7v142.1
					C183.8,206.4,181.2,209,177.9,209z"/>
			</g>
			<g class="st39">
				<path class="st30" d="M177.9,209.2H80.8c-3.1,0-5.7-2.6-5.7-5.7V61.4c0-3.1,2.6-5.7,5.7-5.7h97.1c3.1,0,5.7,2.6,5.7,5.7v142.1
					C183.8,206.6,181.2,209.2,177.9,209.2z"/>
			</g>
			<g class="st40">
				<path class="st30" d="M177.9,209.2H80.8c-3.1,0-5.7-2.6-5.7-5.7V61.4c0-3.1,2.6-5.7,5.7-5.7h97.1c3.1,0,5.7,2.6,5.7,5.7v142.1
					C183.8,206.6,181.2,209.2,177.9,209.2z"/>
			</g>
			<g>
				<path class="st30" d="M177.7,209.2H80.6c-3.1,0-5.7-2.6-5.7-5.7V61.4c0-3.1,2.6-5.7,5.7-5.7h97.1c3.1,0,5.7,2.6,5.7,5.7v142.1
					C183.6,206.6,181,209.2,177.7,209.2z"/>
			</g>
		</g>
		<g>
			<path class="st41" d="M177.9,209.3H80.8c-3.1,0-5.7-2.6-5.7-5.7v-142c0-3.1,2.6-5.7,5.7-5.7h97.1c3.1,0,5.7,2.6,5.7,5.7v142.1
				C183.8,206.8,181.2,209.3,177.9,209.3z"/>
		</g>
	</g>
	<g>
		<g class="st28">
			<g class="st29">
				<path class="st30" d="M177.2,210.1H80.1c-3.1,0-5.7-2.6-5.7-5.7V62.3c0-3.1,2.6-5.7,5.7-5.7h97.1c3.1,0,5.7,2.6,5.7,5.7v142.1
					C183.1,207.5,180.5,210.1,177.2,210.1z"/>
			</g>
			<g class="st31">
				<path class="st30" d="M177,210.1H79.9c-3.1,0-5.7-2.6-5.7-5.7V62.3c0-3.1,2.6-5.7,5.7-5.7H177c3.1,0,5.7,2.6,5.7,5.7v142.1
					C182.9,207.5,180.3,210.1,177,210.1z"/>
			</g>
			<g class="st32">
				<path class="st30" d="M177,210.3H79.9c-3.1,0-5.7-2.6-5.7-5.7V62.5c0-3.1,2.6-5.7,5.7-5.7H177c3.1,0,5.7,2.6,5.7,5.7v142.1
					C182.9,207.7,180.3,210.3,177,210.3z"/>
			</g>
			<g class="st33">
				<path class="st30" d="M176.8,210.3H79.7c-3.1,0-5.7-2.6-5.7-5.7V62.5c0-3.1,2.6-5.7,5.7-5.7h97.1c3.1,0,5.7,2.6,5.7,5.7v142.1
					C182.7,207.7,180.1,210.3,176.8,210.3z"/>
			</g>
			<g class="st34">
				<path class="st30" d="M176.8,210.3H79.7c-3.1,0-5.7-2.6-5.7-5.7V62.5c0-3.1,2.6-5.7,5.7-5.7h97.1c3.1,0,5.7,2.6,5.7,5.7v142.1
					C182.7,207.7,180.1,210.3,176.8,210.3z"/>
			</g>
			<g class="st35">
				<path class="st30" d="M176.8,210.4H79.7c-3.1,0-5.7-2.6-5.7-5.7v-142c0-3.1,2.6-5.7,5.7-5.7h97.1c3.1,0,5.7,2.6,5.7,5.7v142.1
					C182.7,207.9,180.1,210.4,176.8,210.4z"/>
			</g>
			<g class="st36">
				<path class="st30" d="M176.6,210.4H79.5c-3.1,0-5.7-2.6-5.7-5.7v-142c0-3.1,2.6-5.7,5.7-5.7h97.1c3.1,0,5.7,2.6,5.7,5.7v142.1
					C182.5,207.9,179.9,210.4,176.6,210.4z"/>
			</g>
			<g class="st37">
				<path class="st30" d="M176.6,210.6H79.5c-3.1,0-5.7-2.6-5.7-5.7V62.8c0-3.1,2.6-5.7,5.7-5.7h97.1c3.1,0,5.7,2.6,5.7,5.7v142.1
					C182.5,208.1,179.9,210.6,176.6,210.6z"/>
			</g>
			<g class="st38">
				<path class="st30" d="M176.4,210.6H79.3c-3.1,0-5.7-2.6-5.7-5.7V62.8c0-3.1,2.6-5.7,5.7-5.7h97.1c3.1,0,5.7,2.6,5.7,5.7v142.1
					C182.3,208.1,179.7,210.6,176.4,210.6z"/>
			</g>
			<g class="st39">
				<path class="st30" d="M176.4,210.6H79.3c-3.1,0-5.7-2.6-5.7-5.7V62.8c0-3.1,2.6-5.7,5.7-5.7h97.1c3.1,0,5.7,2.6,5.7,5.7v142.1
					C182.3,208.1,179.7,210.6,176.4,210.6z"/>
			</g>
			<g class="st40">
				<path class="st30" d="M176.4,210.8H79.3c-3.1,0-5.7-2.6-5.7-5.7V63c0-3.1,2.6-5.7,5.7-5.7h97.1c3.1,0,5.7,2.6,5.7,5.7v142.1
					C182.3,208.2,179.7,210.8,176.4,210.8z"/>
			</g>
			<g>
				<path class="st30" d="M176.2,210.8H79.1c-3.1,0-5.7-2.6-5.7-5.7V63c0-3.1,2.6-5.7,5.7-5.7h97.1c3.1,0,5.7,2.6,5.7,5.7v142.1
					C182.1,208.2,179.6,210.8,176.2,210.8z"/>
			</g>
		</g>
		<g>
			<path class="st41" d="M176.2,211H79.1c-3.1,0-5.7-2.6-5.7-5.7V63.2c0-3.1,2.6-5.7,5.7-5.7h97.1c3.1,0,5.7,2.6,5.7,5.7v142.1
				C182.1,208.4,179.6,211,176.2,211z"/>
		</g>
	</g>
	<g>
		<g class="st28">
			<g class="st29">
				<path class="st30" d="M175.5,211.7H78.4c-3.1,0-5.7-2.6-5.7-5.7V64c0-3.1,2.6-5.7,5.7-5.7h97.1c3.1,0,5.7,2.6,5.7,5.7v142
					C181.4,209.2,178.8,211.7,175.5,211.7z"/>
			</g>
			<g class="st31">
				<path class="st30" d="M175.5,211.7H78.4c-3.1,0-5.7-2.6-5.7-5.7V64c0-3.1,2.6-5.7,5.7-5.7h97.1c3.1,0,5.7,2.6,5.7,5.7v142
					C181.4,209.2,178.8,211.7,175.5,211.7z"/>
			</g>
			<g class="st32">
				<path class="st30" d="M175.3,211.7H78.2c-3.1,0-5.7-2.6-5.7-5.7V64c0-3.1,2.6-5.7,5.7-5.7h97.1c3.1,0,5.7,2.6,5.7,5.7v142
					C181.2,209.2,178.6,211.7,175.3,211.7z"/>
			</g>
			<g class="st33">
				<path class="st30" d="M175.3,211.9H78.2c-3.1,0-5.7-2.6-5.7-5.7V64.1c0-3.1,2.6-5.7,5.7-5.7h97.1c3.1,0,5.7,2.6,5.7,5.7v142.1
					C181.2,209.3,178.6,211.9,175.3,211.9z"/>
			</g>
			<g class="st34">
				<path class="st30" d="M175.1,211.9H78c-3.1,0-5.7-2.6-5.7-5.7V64.1c0-3.1,2.6-5.7,5.7-5.7h97.1c3.1,0,5.7,2.6,5.7,5.7v142.1
					C181,209.3,178.5,211.9,175.1,211.9z"/>
			</g>
			<g class="st35">
				<path class="st30" d="M175.1,212.1H78c-3.1,0-5.7-2.6-5.7-5.7V64.3c0-3.1,2.6-5.7,5.7-5.7h97.1c3.1,0,5.7,2.6,5.7,5.7v142.1
					C181,209.5,178.5,212.1,175.1,212.1z"/>
			</g>
			<g class="st36">
				<path class="st30" d="M175.1,212.1H78c-3.1,0-5.7-2.6-5.7-5.7V64.3c0-3.1,2.6-5.7,5.7-5.7h97.1c3.1,0,5.7,2.6,5.7,5.7v142.1
					C181,209.5,178.5,212.1,175.1,212.1z"/>
			</g>
			<g class="st37">
				<path class="st30" d="M174.9,212.1H77.8c-3.1,0-5.7-2.6-5.7-5.7V64.3c0-3.1,2.6-5.7,5.7-5.7h97.1c3.1,0,5.7,2.6,5.7,5.7v142.1
					C180.8,209.5,178.3,212.1,174.9,212.1z"/>
			</g>
			<g class="st38">
				<path class="st30" d="M174.9,212.3H77.8c-3.1,0-5.7-2.6-5.7-5.7V64.5c0-3.1,2.6-5.7,5.7-5.7h97.1c3.1,0,5.7,2.6,5.7,5.7v142.1
					C180.8,209.7,178.3,212.3,174.9,212.3z"/>
			</g>
			<g class="st39">
				<path class="st30" d="M174.8,212.3H77.7c-3.1,0-5.7-2.6-5.7-5.7V64.5c0-3.1,2.6-5.7,5.7-5.7h97.1c3.1,0,5.7,2.6,5.7,5.7v142.1
					C180.7,209.7,178.1,212.3,174.8,212.3z"/>
			</g>
			<g class="st40">
				<path class="st30" d="M174.8,212.5H77.7c-3.1,0-5.7-2.6-5.7-5.7V64.7c0-3.1,2.6-5.7,5.7-5.7h97.1c3.1,0,5.7,2.6,5.7,5.7v142.1
					C180.7,209.9,178.1,212.5,174.8,212.5z"/>
			</g>
			<g>
				<path class="st30" d="M174.8,212.5H77.7c-3.1,0-5.7-2.6-5.7-5.7V64.7c0-3.1,2.6-5.7,5.7-5.7h97.1c3.1,0,5.7,2.6,5.7,5.7v142.1
					C180.7,209.9,178.1,212.5,174.8,212.5z"/>
			</g>
		</g>
		<g>
			<path class="st41" d="M174.8,212.5H77.7c-3.1,0-5.7-2.6-5.7-5.7V64.7c0-3.1,2.6-5.7,5.7-5.7h97.1c3.1,0,5.7,2.6,5.7,5.7v142.1
				C180.7,209.9,178.1,212.5,174.8,212.5z"/>
		</g>
	</g>
	<path class="st25" d="M88.7,172.1h-3.3c-2,0-3.5-1.7-3.5-3.5v-3.3c0-2,1.7-3.5,3.5-3.5h3.3c2,0,3.5,1.7,3.5,3.5v3.3
		C92.4,170.6,90.7,172.1,88.7,172.1z"/>
	<path class="st25" d="M88.7,185.8h-3.3c-2,0-3.5-1.7-3.5-3.5V179c0-2,1.7-3.5,3.5-3.5h3.3c2,0,3.5,1.7,3.5,3.5v3.3
		C92.4,184.3,90.7,185.8,88.7,185.8z"/>
	<path class="st24" d="M110.6,100.6h-5.9c-1.3,0-2.2-0.9-2.2-2.2V70.6c0-1.3,0.9-2.2,2.2-2.2h6.1c1.3,0,2.2,0.9,2.2,2.2v27.8
		C112.9,99.7,111.9,100.6,110.6,100.6z"/>
	<path class="st24" d="M97,100.6h-6.1c-1.3,0-2.2-0.9-2.2-2.2V81.8c0-1.3,0.9-2.2,2.2-2.2H97c1.3,0,2.2,0.9,2.2,2.2v16.6
		C99.2,99.7,98.1,100.6,97,100.6z"/>
	<path class="st24" d="M83.2,100.6h-6.1c-1.3,0-2.2-0.9-2.2-2.2V84.8c0-1.3,0.9-2.2,2.2-2.2h6.1c1.3,0,2.2,0.9,2.2,2.2v13.6
		C85.4,99.7,84.5,100.6,83.2,100.6z"/>
	<g>
		<path class="st0" d="M170.7,70.6h-49.2c0,0-0.2,0-0.2-0.2v-3.9c0,0,0-0.2,0.2-0.2h49.2c0,0,0.2,0,0.2,0.2L170.7,70.6
			C170.9,70.6,170.9,70.6,170.7,70.6z"/>
	</g>
	<g>
		<path class="st25" d="M170.7,81.8h-49.2c0,0-0.2,0-0.2-0.2v-3.9c0,0,0-0.2,0.2-0.2h49.2c0,0,0.2,0,0.2,0.2L170.7,81.8
			C170.9,81.6,170.9,81.8,170.7,81.8z"/>
	</g>
	<g>
		<path class="st25" d="M170.7,92.9h-49.2c0,0-0.2,0-0.2-0.2v-3.9c0,0,0-0.2,0.2-0.2h49.2c0,0,0.2,0,0.2,0.2L170.7,92.9
			C170.9,92.9,170.9,92.9,170.7,92.9z"/>
	</g>
	<path class="st25" d="M170.2,113.3H76.4c-0.4,0-0.7-0.4-0.7-0.7v-3.3c0-0.4,0.4-0.7,0.7-0.7h93.8c0.4,0,0.7,0.4,0.7,0.7v3.3
		C170.9,113,170.5,113.3,170.2,113.3z"/>
	<path class="st25" d="M170.2,122.2H76.4c-0.4,0-0.7-0.4-0.7-0.7v-3.3c0-0.4,0.4-0.7,0.7-0.7h93.8c0.4,0,0.7,0.4,0.7,0.7v3.3
		C170.9,121.8,170.5,122.2,170.2,122.2z"/>
	<path class="st25" d="M170.2,131H76.4c-0.4,0-0.7-0.4-0.7-0.7v-3.5c0-0.4,0.4-0.7,0.7-0.7h93.8c0.4,0,0.7,0.4,0.7,0.7v3.3
		C170.9,130.7,170.5,131,170.2,131z"/>
	<path class="st25" d="M170.2,139.9H76.4c-0.4,0-0.7-0.4-0.7-0.7v-3.3c0-0.4,0.4-0.7,0.7-0.7h93.8c0.4,0,0.7,0.4,0.7,0.7v3.3
		C170.9,139.5,170.5,139.9,170.2,139.9z"/>
	<path class="st25" d="M170.2,148.7H76.4c-0.4,0-0.7-0.4-0.7-0.7v-3.3c0-0.4,0.4-0.7,0.7-0.7h93.8c0.4,0,0.7,0.4,0.7,0.7v3.3
		C170.9,148.3,170.5,148.7,170.2,148.7z"/>
	<path class="st25" d="M170.2,157.6H76.4c-0.4,0-0.7-0.4-0.7-0.7v-3.3c0-0.4,0.4-0.7,0.7-0.7h93.8c0.4,0,0.7,0.4,0.7,0.7v3.3
		C170.9,157.2,170.5,157.6,170.2,157.6z"/>
	<path class="st25" d="M170.2,168.3H98.7c-0.4,0-0.7-0.4-0.7-0.7v-3.3c0-0.4,0.4-0.7,0.7-0.7h71.5c0.4,0,0.7,0.4,0.7,0.7v3.3
		C170.9,167.9,170.5,168.3,170.2,168.3z"/>
	<path class="st25" d="M170.2,181.7H98.7c-0.4,0-0.7-0.4-0.7-0.7v-3.3c0-0.4,0.4-0.7,0.7-0.7h71.5c0.4,0,0.7,0.4,0.7,0.7v3.3
		C170.9,181.3,170.5,181.7,170.2,181.7z"/>
	<path class="st25" d="M170.2,196.1H98.7c-0.4,0-0.7-0.4-0.7-0.7V192c0-0.4,0.4-0.7,0.7-0.7h71.5c0.4,0,0.7,0.4,0.7,0.7v3.3
		C170.9,195.7,170.5,196.1,170.2,196.1z"/>
	<g>
		<path class="st24" d="M87.1,171.8c-0.6,0-1.3-0.2-1.8-0.7l-3.5-2.9c-1.1-0.9-1.3-2.8-0.4-3.9c0.9-1.1,2.8-1.3,3.9-0.4l1.5,1.3
			l5.2-4.8c1.1-1.1,2.9-0.9,3.9,0.2c1.1,1.1,0.9,2.9-0.2,3.9l-7,6.4C88.3,171.4,87.6,171.8,87.1,171.8z"/>
	</g>
	<g>
		<path class="st24" d="M87.1,185.2c-0.6,0-1.3-0.2-1.8-0.7l-3.5-2.9c-1.1-0.9-1.3-2.8-0.4-3.9c0.9-1.1,2.8-1.3,3.9-0.4l1.5,1.3
			l5.2-4.8c1.1-1.1,2.9-0.9,3.9,0.2c1.1,1.1,0.9,2.9-0.2,3.9l-7,6.4C88.3,185,87.6,185.2,87.1,185.2z"/>
	</g>
	<path class="st25" d="M88.7,200.1h-3.3c-2,0-3.5-1.7-3.5-3.5v-3.3c0-2,1.7-3.5,3.5-3.5h3.3c2,0,3.5,1.7,3.5,3.5v3.3
		C92.4,198.5,90.7,200.1,88.7,200.1z"/>
	<g>
		<path class="st24" d="M87.1,199.6c-0.6,0-1.3-0.2-1.8-0.7l-3.5-2.9c-1.1-0.9-1.3-2.8-0.4-3.9c0.9-1.1,2.8-1.3,3.9-0.4l1.5,1.3
			l5.2-4.8c1.1-1.1,2.9-0.9,3.9,0.2c1.1,1.1,0.9,2.9-0.2,3.9l-7,6.4C88.3,199.2,87.6,199.6,87.1,199.6z"/>
	</g>
</g>
<g>
	<g class="st42">
		<g class="st29">
			<g>
				<path class="st30" d="M345.5,102.9h-90.6c-7.7,0-14-6.2-14-14V37.1c0-7.7,6.2-14,14-14h90.6c7.7,0,14,6.2,14,14v52
					C359.5,96.7,353.4,102.9,345.5,102.9z"/>
			</g>
		</g>
		<g class="st31">
			<path class="st30" d="M345.5,102.8h-90.6c-7.7,0-14-6.2-14-14V36.9c0-7.7,6.2-14,14-14h90.6c7.7,0,14,6.2,14,14v52
				C359.5,96.6,353.4,102.8,345.5,102.8z"/>
		</g>
		<g class="st32">
			<path class="st30" d="M345.4,102.8H255c-7.7,0-14-6.2-14-14V36.9c0-7.7,6.2-14,14-14h90.4c7.7,0,14,6.2,14,14v52
				C359.4,96.6,353.3,102.8,345.4,102.8z"/>
		</g>
		<g class="st33">
			<path class="st30" d="M345.4,102.6h-90.6c-7.7,0-14-6.2-14-14V36.7c0-7.7,6.2-14,14-14h90.6c7.7,0,14,6.2,14,14v52
				C359.4,96.4,353.3,102.6,345.4,102.6z"/>
		</g>
		<g class="st34">
			<path class="st30" d="M345.4,102.6h-90.6c-7.7,0-14-6.2-14-14V36.7c0-7.7,6.2-14,14-14h90.6c7.7,0,14,6.2,14,14v52
				C359.4,96.4,353.3,102.6,345.4,102.6z"/>
		</g>
		<g class="st35">
			<path class="st30" d="M345.4,102.5h-90.6c-7.7,0-14-6.2-14-14V36.6c0-7.7,6.2-14,14-14h90.6c7.7,0,14,6.2,14,14v52
				C359.4,96.3,353.3,102.5,345.4,102.5z"/>
		</g>
		<g class="st36">
			<path class="st30" d="M345.3,102.3h-90.6c-7.7,0-14-6.2-14-14V36.4c0-7.7,6.2-14,14-14h90.6c7.7,0,14,6.2,14,14v52
				C359.3,96.1,353,102.3,345.3,102.3z"/>
		</g>
		<g class="st37">
			<path class="st30" d="M345.3,102.3h-90.6c-7.7,0-14-6.2-14-14V36.4c0-7.7,6.2-14,14-14h90.6c7.7,0,14,6.2,14,14v52
				C359.3,96.1,353,102.3,345.3,102.3z"/>
		</g>
		<g class="st38">
			<path class="st30" d="M345.3,102.2h-90.6c-7.7,0-14-6.2-14-14V36.3c0-7.7,6.2-14,14-14h90.6c7.7,0,14,6.2,14,14v52
				C359.3,96,353,102.2,345.3,102.2z"/>
		</g>
		<g class="st39">
			<path class="st30" d="M345,102.2h-90.6c-7.7,0-14-6.2-14-14V36.3c0-7.7,6.2-14,14-14H345c7.7,0,14,6.2,14,14v52
				C359.3,96,353,102.2,345,102.2z"/>
		</g>
		<g class="st40">
			<path class="st30" d="M345,102h-90.6c-7.7,0-14-6.2-14-14V36.1c0-7.7,6.2-14,14-14H345c7.7,0,14,6.2,14,14v52
				C359,95.8,353,102,345,102z"/>
		</g>
		<g>
			<g>
				<path class="st30" d="M345,102h-90.6c-7.7,0-14-6.2-14-14V36.1c0-7.7,6.2-14,14-14H345c7.7,0,14,6.2,14,14v52
					C359,95.8,353,102,345,102z"/>
			</g>
		</g>
	</g>
	<g>
		<g>
			<g>
				<g>
					<path class="st1" d="M345,102h-90.4c-7.7,0-14-6.2-14-14V36c0-7.7,6.2-14,14-14H345c7.7,0,14,6.2,14,14v52
						C359,95.7,352.8,102,345,102z"/>
				</g>
			</g>
		</g>
		<g>
			<path class="st24" d="M359,90H240.8V36c0-7.7,6.2-14,14-14h90.4c7.7,0,14,6.2,14,14L359,90L359,90z"/>
		</g>
		<g>
			<path class="st1" d="M299.9,77.3c-11.9,0-21.7-9.6-21.7-21.7s9.6-21.7,21.7-21.7s21.7,9.6,21.7,21.7S311.8,77.3,299.9,77.3z
				 M299.9,35.5c-11,0-20,8.9-20,20c0,11,8.9,20,20,20c11.2,0,20-8.9,20-20C319.9,44.6,310.9,35.5,299.9,35.5z"/>
		</g>
		<g>
			<path class="st1" d="M309.4,54.7l-13.1-7.5c-1.1-0.6-2.3,0.2-2.3,1.4v15.2c0,1.2,1.2,2,2.3,1.4l13.1-7.5
				C310.4,56.6,310.4,55.3,309.4,54.7z"/>
		</g>
		<g>
			<g>
				<rect x="246.7" y="95.1" class="st25" width="106.6" height="2"/>
			</g>
		</g>
		<g>
			<g>
				<rect x="246.7" y="95.2" class="st24" width="37.1" height="1.7"/>
			</g>
		</g>
		<g>
			<circle class="st24" cx="283.8" cy="96" r="2.4"/>
		</g>
	</g>
</g>
<g>
	<path class="st0" d="M528.3,380.9H443c-2.4,0-4.2-1.8-4.2-4.2v-83.2c0-3.8,3.2-6.9,7.5-6.9h36.6c2,0,4.1,0.8,5.5,2.3l12.4,12h36.4
		c4.1,0,7.5,3.1,7.5,6.9v25.8L528.3,380.9z"/>
	<g>
		<g>
			<g class="st28">
				<g class="st29">
					<path class="st30" d="M527.1,376.8h-74.4c-2.4,0-4.4-2-4.4-4.4V263.5c0-2.4,2-4.4,4.4-4.4h74.4c2.4,0,4.4,2,4.4,4.4v108.9
						C531.6,374.8,529.7,376.8,527.1,376.8z"/>
				</g>
				<g class="st31">
					<path class="st30" d="M527.1,376.8h-74.4c-2.4,0-4.4-2-4.4-4.4V263.5c0-2.4,2-4.4,4.4-4.4h74.4c2.4,0,4.4,2,4.4,4.4v108.9
						C531.6,374.8,529.7,376.8,527.1,376.8z"/>
				</g>
				<g class="st32">
					<path class="st30" d="M527.1,376.9h-74.4c-2.4,0-4.4-2-4.4-4.4V263.7c0-2.4,2-4.4,4.4-4.4h74.4c2.4,0,4.4,2,4.4,4.4v108.9
						C531.6,375,529.7,376.9,527.1,376.9z"/>
				</g>
				<g class="st33">
					<path class="st30" d="M527,376.9h-74.4c-2.4,0-4.4-2-4.4-4.4V263.7c0-2.4,2-4.4,4.4-4.4H527c2.4,0,4.4,2,4.4,4.4v108.9
						C531.5,375,529.5,376.9,527,376.9z"/>
				</g>
				<g class="st34">
					<path class="st30" d="M527,377.1h-74.4c-2.4,0-4.4-2-4.4-4.4V263.8c0-2.4,2-4.4,4.4-4.4H527c2.4,0,4.4,2,4.4,4.4v108.9
						C531.5,375.1,529.5,377.1,527,377.1z"/>
				</g>
				<g class="st35">
					<path class="st30" d="M526.8,377.1h-74.4c-2.4,0-4.4-2-4.4-4.4V263.8c0-2.4,2-4.4,4.4-4.4h74.4c2.4,0,4.4,2,4.4,4.4v108.9
						C531.4,375.1,529.4,377.1,526.8,377.1z"/>
				</g>
				<g class="st36">
					<path class="st30" d="M526.8,377.1h-74.4c-2.4,0-4.4-2-4.4-4.4V263.8c0-2.4,2-4.4,4.4-4.4h74.4c2.4,0,4.4,2,4.4,4.4v108.9
						C531.4,375.1,529.4,377.1,526.8,377.1z"/>
				</g>
				<g class="st37">
					<path class="st30" d="M526.7,377.2h-74.4c-2.4,0-4.4-2-4.4-4.4V264c0-2.4,2-4.4,4.4-4.4h74.4c2.4,0,4.4,2,4.4,4.4v108.9
						C531.2,375.2,529.2,377.2,526.7,377.2z"/>
				</g>
				<g class="st38">
					<path class="st30" d="M526.7,377.2h-74.4c-2.4,0-4.4-2-4.4-4.4V264c0-2.4,2-4.4,4.4-4.4h74.4c2.4,0,4.4,2,4.4,4.4v108.9
						C531.2,375.2,529.2,377.2,526.7,377.2z"/>
				</g>
				<g class="st39">
					<path class="st30" d="M526.7,377.4h-74.4c-2.4,0-4.4-2-4.4-4.4V264.1c0-2.4,2-4.4,4.4-4.4h74.4c2.4,0,4.4,2,4.4,4.4V373
						C531.2,375.4,529.2,377.4,526.7,377.4z"/>
				</g>
				<g class="st40">
					<path class="st30" d="M526.6,377.4h-74.4c-2.4,0-4.4-2-4.4-4.4V264.1c0-2.4,2-4.4,4.4-4.4h74.4c2.4,0,4.4,2,4.4,4.4V373
						C531.1,375.4,529.1,377.4,526.6,377.4z"/>
				</g>
				<g>
					<path class="st30" d="M526.6,377.4h-74.4c-2.4,0-4.4-2-4.4-4.4V264.1c0-2.4,2-4.4,4.4-4.4h74.4c2.4,0,4.4,2,4.4,4.4V373
						C531.1,375.4,529.1,377.4,526.6,377.4z"/>
				</g>
			</g>
			<g>
				<path class="st41" d="M526.6,377.5h-74.4c-2.4,0-4.4-2-4.4-4.4V264.2c0-2.4,2-4.4,4.4-4.4h74.4c2.4,0,4.4,2,4.4,4.4v108.9
					C531.1,375.5,529.1,377.5,526.6,377.5z"/>
			</g>
		</g>
		<g>
			<g class="st28">
				<g class="st29">
					<path class="st30" d="M526,378.1h-74.4c-2.4,0-4.4-2-4.4-4.4V264.8c0-2.4,2-4.4,4.4-4.4H526c2.4,0,4.4,2,4.4,4.4v108.9
						C530.5,376.1,528.5,378.1,526,378.1z"/>
				</g>
				<g class="st31">
					<path class="st30" d="M526,378.1h-74.4c-2.4,0-4.4-2-4.4-4.4V264.8c0-2.4,2-4.4,4.4-4.4H526c2.4,0,4.4,2,4.4,4.4v108.9
						C530.5,376.1,528.5,378.1,526,378.1z"/>
				</g>
				<g class="st32">
					<path class="st30" d="M525.9,378.2h-74.4c-2.4,0-4.4-2-4.4-4.4V264.9c0-2.4,2-4.4,4.4-4.4h74.4c2.4,0,4.4,2,4.4,4.4v108.9
						C530.4,376.2,528.4,378.2,525.9,378.2z"/>
				</g>
				<g class="st33">
					<path class="st30" d="M525.9,378.2h-74.4c-2.4,0-4.4-2-4.4-4.4V264.9c0-2.4,2-4.4,4.4-4.4h74.4c2.4,0,4.4,2,4.4,4.4v108.9
						C530.4,376.2,528.4,378.2,525.9,378.2z"/>
				</g>
				<g class="st34">
					<path class="st30" d="M525.9,378.2h-74.4c-2.4,0-4.4-2-4.4-4.4V264.9c0-2.4,2-4.4,4.4-4.4h74.4c2.4,0,4.4,2,4.4,4.4v108.9
						C530.4,376.2,528.4,378.2,525.9,378.2z"/>
				</g>
				<g class="st35">
					<path class="st30" d="M525.7,378.4h-74.4c-2.4,0-4.4-2-4.4-4.4V265.1c0-2.4,2-4.4,4.4-4.4h74.4c2.4,0,4.4,2,4.4,4.4V374
						C530.2,376.4,528.3,378.4,525.7,378.4z"/>
				</g>
				<g class="st36">
					<path class="st30" d="M525.7,378.4h-74.4c-2.4,0-4.4-2-4.4-4.4V265.1c0-2.4,2-4.4,4.4-4.4h74.4c2.4,0,4.4,2,4.4,4.4V374
						C530.2,376.4,528.3,378.4,525.7,378.4z"/>
				</g>
				<g class="st37">
					<path class="st30" d="M525.6,378.5h-74.4c-2.4,0-4.4-2-4.4-4.4V265.2c0-2.4,2-4.4,4.4-4.4h74.4c2.4,0,4.4,2,4.4,4.4v108.9
						C530.1,376.5,528.1,378.5,525.6,378.5z"/>
				</g>
				<g class="st38">
					<path class="st30" d="M525.6,378.5h-74.4c-2.4,0-4.4-2-4.4-4.4V265.2c0-2.4,2-4.4,4.4-4.4h74.4c2.4,0,4.4,2,4.4,4.4v108.9
						C530.1,376.5,528.1,378.5,525.6,378.5z"/>
				</g>
				<g class="st39">
					<path class="st30" d="M525.6,378.5h-74.4c-2.4,0-4.4-2-4.4-4.4V265.2c0-2.4,2-4.4,4.4-4.4h74.4c2.4,0,4.4,2,4.4,4.4v108.9
						C530.1,376.5,528.1,378.5,525.6,378.5z"/>
				</g>
				<g class="st40">
					<path class="st30" d="M525.4,378.6H451c-2.4,0-4.4-2-4.4-4.4V265.4c0-2.4,2-4.4,4.4-4.4h74.4c2.4,0,4.4,2,4.4,4.4v108.9
						C530,376.7,528,378.6,525.4,378.6z"/>
				</g>
				<g>
					<path class="st30" d="M525.4,378.6H451c-2.4,0-4.4-2-4.4-4.4V265.4c0-2.4,2-4.4,4.4-4.4h74.4c2.4,0,4.4,2,4.4,4.4v108.9
						C530,376.7,528,378.6,525.4,378.6z"/>
				</g>
			</g>
			<g>
				<path class="st41" d="M525.4,378.8H451c-2.4,0-4.4-2-4.4-4.4V265.5c0-2.4,2-4.4,4.4-4.4h74.4c2.4,0,4.4,2,4.4,4.4v108.9
					C530,376.8,528,378.8,525.4,378.8z"/>
			</g>
		</g>
		<g>
			<g class="st28">
				<g class="st29">
					<path class="st30" d="M524.9,379.3h-74.4c-2.4,0-4.4-2-4.4-4.4V266.1c0-2.4,2-4.4,4.4-4.4h74.4c2.4,0,4.4,2,4.4,4.4V375
						C529.4,377.4,527.4,379.3,524.9,379.3z"/>
				</g>
				<g class="st31">
					<path class="st30" d="M524.7,379.3h-74.4c-2.4,0-4.4-2-4.4-4.4V266.1c0-2.4,2-4.4,4.4-4.4h74.4c2.4,0,4.4,2,4.4,4.4V375
						C529.2,377.4,527.3,379.3,524.7,379.3z"/>
				</g>
				<g class="st32">
					<path class="st30" d="M524.7,379.3h-74.4c-2.4,0-4.4-2-4.4-4.4V266.1c0-2.4,2-4.4,4.4-4.4h74.4c2.4,0,4.4,2,4.4,4.4V375
						C529.2,377.4,527.3,379.3,524.7,379.3z"/>
				</g>
				<g class="st33">
					<path class="st30" d="M524.6,379.5h-74.4c-2.4,0-4.4-2-4.4-4.4V266.2c0-2.4,2-4.4,4.4-4.4h74.4c2.4,0,4.4,2,4.4,4.4v108.9
						C529.1,377.5,527.1,379.5,524.6,379.5z"/>
				</g>
				<g class="st34">
					<path class="st30" d="M524.6,379.5h-74.4c-2.4,0-4.4-2-4.4-4.4V266.2c0-2.4,2-4.4,4.4-4.4h74.4c2.4,0,4.4,2,4.4,4.4v108.9
						C529.1,377.5,527.1,379.5,524.6,379.5z"/>
				</g>
				<g class="st35">
					<path class="st30" d="M524.6,379.6h-74.4c-2.4,0-4.4-2-4.4-4.4V266.4c0-2.4,2-4.4,4.4-4.4h74.4c2.4,0,4.4,2,4.4,4.4v108.9
						C529.1,377.6,527.1,379.6,524.6,379.6z"/>
				</g>
				<g class="st36">
					<path class="st30" d="M524.4,379.6H450c-2.4,0-4.4-2-4.4-4.4V266.4c0-2.4,2-4.4,4.4-4.4h74.4c2.4,0,4.4,2,4.4,4.4v108.9
						C529,377.6,527,379.6,524.4,379.6z"/>
				</g>
				<g class="st37">
					<path class="st30" d="M524.4,379.6H450c-2.4,0-4.4-2-4.4-4.4V266.4c0-2.4,2-4.4,4.4-4.4h74.4c2.4,0,4.4,2,4.4,4.4v108.9
						C529,377.6,527,379.6,524.4,379.6z"/>
				</g>
				<g class="st38">
					<path class="st30" d="M524.3,379.8h-74.4c-2.4,0-4.4-2-4.4-4.4V266.5c0-2.4,2-4.4,4.4-4.4h74.4c2.4,0,4.4,2,4.4,4.4v108.9
						C528.8,377.8,526.8,379.8,524.3,379.8z"/>
				</g>
				<g class="st39">
					<path class="st30" d="M524.3,379.8h-74.4c-2.4,0-4.4-2-4.4-4.4V266.5c0-2.4,2-4.4,4.4-4.4h74.4c2.4,0,4.4,2,4.4,4.4v108.9
						C528.8,377.8,526.8,379.8,524.3,379.8z"/>
				</g>
				<g class="st40">
					<path class="st30" d="M524.3,379.9h-74.4c-2.4,0-4.4-2-4.4-4.4V266.6c0-2.4,2-4.4,4.4-4.4h74.4c2.4,0,4.4,2,4.4,4.4v108.9
						C528.8,377.9,526.8,379.9,524.3,379.9z"/>
				</g>
				<g>
					<path class="st30" d="M524.2,379.9h-74.4c-2.4,0-4.4-2-4.4-4.4V266.6c0-2.4,2-4.4,4.4-4.4h74.4c2.4,0,4.4,2,4.4,4.4v108.9
						C528.7,377.9,526.7,379.9,524.2,379.9z"/>
				</g>
			</g>
			<g>
				<path class="st41" d="M524.3,379.9h-74.4c-2.4,0-4.4-2-4.4-4.4V266.6c0-2.4,2-4.4,4.4-4.4h74.4c2.4,0,4.4,2,4.4,4.4v108.9
					C528.8,377.9,526.8,379.9,524.3,379.9z"/>
			</g>
		</g>
		<path class="st25" d="M458.3,349h-2.5c-1.6,0-2.7-1.3-2.7-2.7v-2.5c0-1.6,1.3-2.7,2.7-2.7h2.5c1.6,0,2.7,1.3,2.7,2.7v2.5
			C461.2,347.8,459.9,349,458.3,349z"/>
		<path class="st25" d="M458.3,359.4h-2.5c-1.6,0-2.7-1.3-2.7-2.7v-2.5c0-1.6,1.3-2.7,2.7-2.7h2.5c1.6,0,2.7,1.3,2.7,2.7v2.5
			C461.2,358.3,459.9,359.4,458.3,359.4z"/>
		<g>
			<path class="st0" d="M521.2,271.2h-37.7c0,0-0.1,0-0.1-0.1v-3c0,0,0-0.1,0.1-0.1h37.7c0,0,0.1,0,0.1,0.1L521.2,271.2
				C521.3,271.2,521.3,271.2,521.2,271.2z"/>
		</g>
		<g>
			<path class="st25" d="M521.2,279.8h-37.7c0,0-0.1,0-0.1-0.1v-3c0,0,0-0.1,0.1-0.1h37.7c0,0,0.1,0,0.1,0.1L521.2,279.8
				C521.3,279.6,521.3,279.8,521.2,279.8z"/>
		</g>
		<g>
			<path class="st25" d="M521.2,288.2h-37.7c0,0-0.1,0-0.1-0.1v-3c0,0,0-0.1,0.1-0.1h37.7c0,0,0.1,0,0.1,0.1L521.2,288.2
				C521.3,288.2,521.3,288.2,521.2,288.2z"/>
		</g>
		<path class="st25" d="M520.8,303.9h-71.9c-0.3,0-0.6-0.3-0.6-0.6v-2.5c0-0.3,0.3-0.6,0.6-0.6h71.9c0.3,0,0.6,0.3,0.6,0.6v2.5
			C521.3,303.6,521.1,303.9,520.8,303.9z"/>
		<path class="st25" d="M520.8,310.7h-71.9c-0.3,0-0.6-0.3-0.6-0.6v-2.5c0-0.3,0.3-0.6,0.6-0.6h71.9c0.3,0,0.6,0.3,0.6,0.6v2.5
			C521.3,310.4,521.1,310.7,520.8,310.7z"/>
		<path class="st25" d="M520.8,317.5h-71.9c-0.3,0-0.6-0.3-0.6-0.6v-2.7c0-0.3,0.3-0.6,0.6-0.6h71.9c0.3,0,0.6,0.3,0.6,0.6v2.5
			C521.3,317.2,521.1,317.5,520.8,317.5z"/>
		<path class="st25" d="M520.8,324.3h-71.9c-0.3,0-0.6-0.3-0.6-0.6v-2.5c0-0.3,0.3-0.6,0.6-0.6h71.9c0.3,0,0.6,0.3,0.6,0.6v2.5
			C521.3,324,521.1,324.3,520.8,324.3z"/>
		<path class="st25" d="M520.8,331h-71.9c-0.3,0-0.6-0.3-0.6-0.6v-2.5c0-0.3,0.3-0.6,0.6-0.6h71.9c0.3,0,0.6,0.3,0.6,0.6v2.5
			C521.3,330.8,521.1,331,520.8,331z"/>
		<path class="st25" d="M520.8,337.8h-71.9c-0.3,0-0.6-0.3-0.6-0.6v-2.5c0-0.3,0.3-0.6,0.6-0.6h71.9c0.3,0,0.6,0.3,0.6,0.6v2.5
			C521.3,337.5,521.1,337.8,520.8,337.8z"/>
		<path class="st25" d="M520.8,346H466c-0.3,0-0.6-0.3-0.6-0.6v-2.5c0-0.3,0.3-0.6,0.6-0.6h54.8c0.3,0,0.6,0.3,0.6,0.6v2.5
			C521.3,345.7,521.1,346,520.8,346z"/>
		<path class="st25" d="M520.8,356.3H466c-0.3,0-0.6-0.3-0.6-0.6v-2.5c0-0.3,0.3-0.6,0.6-0.6h54.8c0.3,0,0.6,0.3,0.6,0.6v2.5
			C521.3,356,521.1,356.3,520.8,356.3z"/>
		<path class="st25" d="M520.8,367.3H466c-0.3,0-0.6-0.3-0.6-0.6v-2.5c0-0.3,0.3-0.6,0.6-0.6h54.8c0.3,0,0.6,0.3,0.6,0.6v2.5
			C521.3,367.1,521.1,367.3,520.8,367.3z"/>
		<g>
			<path class="st24" d="M457.1,359c-0.4,0-1-0.1-1.4-0.6l-2.7-2.3c-0.8-0.7-1-2.1-0.3-3s2.1-1,3-0.3l1.1,1l4-3.7
				c0.8-0.8,2.3-0.7,3,0.1c0.8,0.8,0.7,2.3-0.1,3l-5.4,4.9C458.1,358.9,457.5,359,457.1,359z"/>
		</g>
		<path class="st25" d="M458.3,370.4h-2.5c-1.6,0-2.7-1.3-2.7-2.7v-2.5c0-1.6,1.3-2.7,2.7-2.7h2.5c1.6,0,2.7,1.3,2.7,2.7v2.5
			C461.2,369.2,459.9,370.4,458.3,370.4z"/>
		<g>
			<path class="st24" d="M457.1,370c-0.4,0-1-0.1-1.4-0.6l-2.7-2.3c-0.8-0.7-1-2.1-0.3-3s2.1-1,3-0.3l1.1,1l4-3.7
				c0.8-0.8,2.3-0.7,3,0.1c0.8,0.8,0.7,2.3-0.1,3l-5.4,4.9C458.1,369.7,457.5,370,457.1,370z"/>
		</g>
		<path class="st24" d="M476.4,288.2H453c-1.6,0-2.7-1.3-2.7-2.7v-13.3c0-1.6,1.3-2.7,2.7-2.7h23.4c1.6,0,2.7,1.3,2.7,2.7v13.3
			C479.1,287,477.8,288.2,476.4,288.2z"/>
	</g>
	<path class="st24" d="M526.7,380.9h-84.5c-1.7,0-3-1.7-2.3-3.4l27-60.6c1.6-3.7,5.4-5.9,9.6-5.9h67.4c7.3,0,12.4,6.9,9.6,13.1
		L529,379.6C528.5,380.5,527.7,380.9,526.7,380.9z"/>
</g>
<g>
	<path class="st26" d="M300,168.6c-20.1,0-36.4,16.3-36.4,36.4c0,11.5,5.4,21.8,13.7,28.5c6.2,5,14.1,8,22.7,8
		c8.2,0,15.8-2.7,21.9-7.4c8.8-6.7,14.5-17.2,14.5-29.1C336.4,184.9,320.1,168.6,300,168.6z"/>
	<g>
		<path class="st43" d="M290.4,198.3c-0.9-2.7-3-2.1-3.2-2c-0.2,0-2.4,0.3-2,3.2s2,4.4,3.6,4C290.4,203.2,291.3,201.1,290.4,198.3z"
			/>
	</g>
	<g>
		<path class="st43" d="M308,198.3c0.9-2.7,3-2.1,3.2-2c0.2,0,2.4,0.3,2,3.2s-2,4.4-3.6,4C308,203.2,307.1,201.1,308,198.3z"/>
	</g>
	<g>
		<path class="st44" d="M313.3,186c-0.9-3-3.5-1.4-3.5-1.4c0.3-2.5-0.4-3.7-2.2-4.3c-0.4,2.5-1.2,5-2.6,7.2c1.1-0.5,1.8-0.9,1.8-0.9
			c-0.5,6.5,2.8,5.5,2.8,5.5v8.5h0.9l0.4-1.6C310.8,199,314.1,189,313.3,186z"/>
	</g>
	<path class="st45" d="M289.6,217.8h19.9c4.9,0,9.2,3.3,10.4,8.1l1.6,6.6c8.2-6.4,13.4-16.3,13.4-27.5c0-19.2-15.7-34.9-34.9-34.9
		s-34.9,15.6-34.9,34.9c0,10.8,4.9,20.5,12.6,26.9l1.5-6.1C280.4,221.1,284.7,217.8,289.6,217.8z"/>
	<path class="st0" d="M321.5,232.5l-1.6-6.6c-1.2-4.8-5.5-8.1-10.4-8.1h-19.9c-4.9,0-9.2,3.3-10.3,8.1l-1.5,6.1
		c6.1,5,13.8,8.1,22.3,8.1C308.1,239.9,315.6,237.2,321.5,232.5z"/>
	<path class="st27" d="M300,168.6c-20.1,0-36.4,16.3-36.4,36.4c0,11.5,5.4,21.8,13.7,28.5c6.2,5,14.1,8,22.7,8
		c8.2,0,15.8-2.7,21.9-7.4c8.8-6.7,14.5-17.2,14.5-29.1C336.4,184.9,320.1,168.6,300,168.6z M321.5,232.5
		c-5.9,4.7-13.4,7.4-21.5,7.4c-8.5,0-16.2-3-22.3-8.1c-7.7-6.4-12.6-16.1-12.6-26.9c0-19.3,15.7-34.9,34.9-34.9s34.9,15.7,34.9,34.9
		C334.9,216.2,329.7,226.1,321.5,232.5z"/>
	<g>
		<path class="st1" d="M299,221.5c4.4-0.1,8.2-1.9,9.3-3.7c-0.2-0.1-0.6-0.2-0.9-0.3c-1.3-0.4-1.8-1.2-2.1-2.3
			c-1.1-3.8-0.4-6.1-0.5-6.7c-1.7-0.6-3.5,4.7-5.9,4.7c-2.5,0.1-4.3-4.5-5.9-3.8c-0.3,1.3-1,7.1-2.3,7.8c-0.4,0.2-0.8,0.4-1.1,0.5
			C289.8,219.9,294,221.6,299,221.5z"/>
	</g>
	<g>
		<path class="st43" d="M304.9,213.8c-0.6-3-0.1-4.8-0.2-5.3c-1.7-0.6-3.5,4.7-5.9,4.7c-2.5,0.1-4.3-4.5-5.9-3.8
			c-0.2,1-0.6,4.3-1.3,6.3C296,215.1,300.5,214.4,304.9,213.8z"/>
	</g>
	<g>
		<path class="st1" d="M288.2,194.1c1.1-12,10.2-11.4,11.1-11.3c0.9-0.1,10-0.8,11.1,11.3s-4.3,20-11.1,19.6
			C292.5,214.1,287.1,206.2,288.2,194.1z"/>
	</g>
	<g>
		<path class="st44" d="M287.8,185.7c0,0-2.5,1.6-0.7,7.1l1.1,6.2l0.9,0.2c0,0-0.4-9.4,2.6-11.5
			C294.7,185.5,287.8,185.7,287.8,185.7z"/>
	</g>
	<g>
		<path class="st0" d="M306.7,186.6c0,0-11.9,6.9-18.2,1.4c-6.4-5.5,0.4-8.3,3-8c0,0-0.9-3,2.6-3.4s2.8,3.2,8.1,3.2
			c5.3,0,8,0.4,7.4,4.8c0,0,2.6-1.6,3.5,1.4s-2.5,12.9-2.5,12.9l-0.4,1.6h-0.9V192C309.6,192.1,306.2,193.1,306.7,186.6z"/>
	</g>
	<g>
		<path class="st0" d="M304.2,187.8c-3.8,1.7-11.2,4.1-15.7,0.2c-6.4-5.5,0.4-8.3,3-8c0,0-0.9-3,2.6-3.4c3.2-0.3,2.9,2.5,6.8,3.1
			L304.2,187.8z"/>
	</g>
</g>
<g>
	<path class="st0" d="M296.2,259.5c2.5-0.4,5.2-0.3,7.7,0.1l-3.7-8.9L296.2,259.5z"/>
	<rect x="298" y="256.7" class="st0" width="4" height="49.6"/>
</g>
<g>
	<path class="st0" d="M303.8,154.4c-2.5,0.4-5.2,0.3-7.7-0.1l3.7,8.9L303.8,154.4z"/>
	<rect x="298" y="107.6" class="st0" width="4" height="49.6"/>
</g>
<g>
	<path class="st0" d="M369.1,185.1c-1.6-2-2.9-4.3-3.7-6.7l-5.8,7.7L369.1,185.1z"/>
	
		<rect x="361.5" y="168.8" transform="matrix(0.8662 -0.4997 0.4997 0.8662 -33.6491 215.8876)" class="st0" width="49.6" height="4"/>
</g>
<g>
	<path class="st0" d="M249.9,186l-5.8-7.7c-0.8,2.5-2.1,4.8-3.7,6.7L249.9,186z"/>
	<rect x="221.3" y="146" transform="matrix(0.4997 -0.8662 0.8662 0.4997 -36.222 278.8244)" class="st0" width="4" height="49.6"/>
</g>
<g>
	<path class="st0" d="M359.6,255.9l5.8,7.7c0.8-2.5,2.1-4.8,3.7-6.7L359.6,255.9z"/>
	
		<rect x="384.3" y="246.4" transform="matrix(0.4997 -0.8662 0.8662 0.4997 -41.6685 470.2984)" class="st0" width="4" height="49.6"/>
</g>
<g>
	<path class="st0" d="M240.3,256.9c1.6,2,2.9,4.3,3.7,6.7l5.8-7.7L240.3,256.9z"/>
	
		<rect x="198.4" y="269.2" transform="matrix(0.8662 -0.4997 0.4997 0.8662 -105.6269 147.8378)" class="st0" width="49.6" height="4"/>
</g>
</svg>
